<svg style="position: absolute; width: 0; height: 0; overflow: hidden;" version="1.1" xmlns="http://www.w3.org/2000/svg" xmlns:xlink="http://www.w3.org/1999/xlink">
<defs>
<symbol id="icon-times" viewBox="0 0 22 28">
<title>times</title>
<path class="path1" d="M20.281 20.656c0 0.391-0.156 0.781-0.438 1.062l-2.125 2.125c-0.281 0.281-0.672 0.438-1.062 0.438s-0.781-0.156-1.062-0.438l-4.594-4.594-4.594 4.594c-0.281 0.281-0.672 0.438-1.062 0.438s-0.781-0.156-1.062-0.438l-2.125-2.125c-0.281-0.281-0.438-0.672-0.438-1.062s0.156-0.781 0.438-1.062l4.594-4.594-4.594-4.594c-0.281-0.281-0.438-0.672-0.438-1.062s0.156-0.781 0.438-1.062l2.125-2.125c0.281-0.281 0.672-0.438 1.062-0.438s0.781 0.156 1.062 0.438l4.594 4.594 4.594-4.594c0.281-0.281 0.672-0.438 1.062-0.438s0.781 0.156 1.062 0.438l2.125 2.125c0.281 0.281 0.438 0.672 0.438 1.062s-0.156 0.781-0.438 1.062l-4.594 4.594 4.594 4.594c0.281 0.281 0.438 0.672 0.438 1.062z"></path>
</symbol>
<symbol id="icon-pencil" viewBox="0 0 24 28">
<title>pencil</title>
<path class="path1" d="M5.672 24l1.422-1.422-3.672-3.672-1.422 1.422v1.672h2v2h1.672zM13.844 9.5c0-0.203-0.141-0.344-0.344-0.344-0.094 0-0.187 0.031-0.266 0.109l-8.469 8.469c-0.078 0.078-0.109 0.172-0.109 0.266 0 0.203 0.141 0.344 0.344 0.344 0.094 0 0.187-0.031 0.266-0.109l8.469-8.469c0.078-0.078 0.109-0.172 0.109-0.266zM13 6.5l6.5 6.5-13 13h-6.5v-6.5zM23.672 8c0 0.531-0.219 1.047-0.578 1.406l-2.594 2.594-6.5-6.5 2.594-2.578c0.359-0.375 0.875-0.594 1.406-0.594s1.047 0.219 1.422 0.594l3.672 3.656c0.359 0.375 0.578 0.891 0.578 1.422z"></path>
</symbol>
<symbol id="icon-expand" viewBox="0 0 24 28">
<title>expand</title>
<path class="path1" d="M11.797 16.5c0 0.125-0.063 0.266-0.156 0.359l-5.187 5.187 2.25 2.25c0.187 0.187 0.297 0.438 0.297 0.703 0 0.547-0.453 1-1 1h-7c-0.547 0-1-0.453-1-1v-7c0-0.547 0.453-1 1-1 0.266 0 0.516 0.109 0.703 0.297l2.25 2.25 5.187-5.187c0.094-0.094 0.234-0.156 0.359-0.156s0.266 0.063 0.359 0.156l1.781 1.781c0.094 0.094 0.156 0.234 0.156 0.359zM24 3v7c0 0.547-0.453 1-1 1-0.266 0-0.516-0.109-0.703-0.297l-2.25-2.25-5.187 5.187c-0.094 0.094-0.234 0.156-0.359 0.156s-0.266-0.063-0.359-0.156l-1.781-1.781c-0.094-0.094-0.156-0.234-0.156-0.359s0.063-0.266 0.156-0.359l5.187-5.187-2.25-2.25c-0.187-0.187-0.297-0.438-0.297-0.703 0-0.547 0.453-1 1-1h7c0.547 0 1 0.453 1 1z"></path>
</symbol>
<symbol id="icon-compress" viewBox="0 0 24 28">
<title>compress</title>
<path class="path1" d="M12 15v7c0 0.547-0.453 1-1 1-0.266 0-0.516-0.109-0.703-0.297l-2.25-2.25-5.187 5.187c-0.094 0.094-0.234 0.156-0.359 0.156s-0.266-0.063-0.359-0.156l-1.781-1.781c-0.094-0.094-0.156-0.234-0.156-0.359s0.063-0.266 0.156-0.359l5.187-5.187-2.25-2.25c-0.187-0.187-0.297-0.438-0.297-0.703 0-0.547 0.453-1 1-1h7c0.547 0 1 0.453 1 1zM23.797 4.5c0 0.125-0.063 0.266-0.156 0.359l-5.187 5.187 2.25 2.25c0.187 0.187 0.297 0.438 0.297 0.703 0 0.547-0.453 1-1 1h-7c-0.547 0-1-0.453-1-1v-7c0-0.547 0.453-1 1-1 0.266 0 0.516 0.109 0.703 0.297l2.25 2.25 5.187-5.187c0.094-0.094 0.234-0.156 0.359-0.156s0.266 0.063 0.359 0.156l1.781 1.781c0.094 0.094 0.156 0.234 0.156 0.359z"></path>
</symbol>
<symbol id="icon-sign-out" viewBox="0 0 25 28">
<title>sign-out</title>
<path class="path1" d="M10 22.5c0 0.438 0.203 1.5-0.5 1.5h-5c-2.484 0-4.5-2.016-4.5-4.5v-11c0-2.484 2.016-4.5 4.5-4.5h5c0.266 0 0.5 0.234 0.5 0.5 0 0.438 0.203 1.5-0.5 1.5h-5c-1.375 0-2.5 1.125-2.5 2.5v11c0 1.375 1.125 2.5 2.5 2.5h4.5c0.391 0 1-0.078 1 0.5zM24.5 14c0 0.266-0.109 0.516-0.297 0.703l-8.5 8.5c-0.187 0.187-0.438 0.297-0.703 0.297-0.547 0-1-0.453-1-1v-4.5h-7c-0.547 0-1-0.453-1-1v-6c0-0.547 0.453-1 1-1h7v-4.5c0-0.547 0.453-1 1-1 0.266 0 0.516 0.109 0.703 0.297l8.5 8.5c0.187 0.187 0.297 0.438 0.297 0.703z"></path>
</symbol>
<symbol id="icon-circle" viewBox="0 0 24 28">
<title>circle</title>
<path class="path1" d="M24 14c0 6.625-5.375 12-12 12s-12-5.375-12-12 5.375-12 12-12 12 5.375 12 12z"></path>
</symbol>
<symbol id="icon-eraser" viewBox="0 0 30 28">
<title>eraser</title>
<path class="path1" d="M14 22l5.25-6h-12l-5.25 6h12zM29.828 5.172c0.313 0.719 0.187 1.547-0.328 2.141l-14 16c-0.375 0.438-0.922 0.688-1.5 0.688h-12c-0.781 0-1.5-0.453-1.828-1.172-0.313-0.719-0.187-1.547 0.328-2.141l14-16c0.375-0.438 0.922-0.688 1.5-0.688h12c0.781 0 1.5 0.453 1.828 1.172z"></path>
</symbol>
<symbol id="icon-share-alt" viewBox="0 0 24 28">
<title>share-alt</title>
<path class="path1" d="M19 16c2.766 0 5 2.234 5 5s-2.234 5-5 5-5-2.234-5-5c0-0.172 0.016-0.359 0.031-0.531l-5.625-2.812c-0.891 0.828-2.094 1.344-3.406 1.344-2.766 0-5-2.234-5-5s2.234-5 5-5c1.313 0 2.516 0.516 3.406 1.344l5.625-2.812c-0.016-0.172-0.031-0.359-0.031-0.531 0-2.766 2.234-5 5-5s5 2.234 5 5-2.234 5-5 5c-1.313 0-2.516-0.516-3.406-1.344l-5.625 2.812c0.016 0.172 0.031 0.359 0.031 0.531s-0.016 0.359-0.031 0.531l5.625 2.812c0.891-0.828 2.094-1.344 3.406-1.344z"></path>
</symbol>
<symbol id="icon-paint-brush" viewBox="0 0 28 28">
<title>paint-brush</title>
<path class="path1" d="M25.234 0c1.422 0 2.734 1.062 2.734 2.547 0 0.828-0.328 1.625-0.703 2.359-1.219 2.312-5.313 9.953-7.266 11.75-0.953 0.891-2.078 1.422-3.406 1.422-2.641 0-4.797-2.25-4.797-4.875 0-1.25 0.516-2.469 1.437-3.313l9.969-9.047c0.547-0.5 1.266-0.844 2.031-0.844zM11.031 16.156c0.812 1.578 2.297 2.766 4.016 3.219l0.016 1.109c0.094 4.453-3 7.516-7.469 7.516-5.297 0-7.594-4.219-7.594-9.016 0.578 0.391 2.594 2 3.25 2 0.391 0 0.719-0.219 0.859-0.578 1.328-3.469 3.406-4.094 6.922-4.25z"></path>
</symbol>
<symbol id="icon-user-circle-o" viewBox="0 0 28 28">
<title>user-circle-o</title>
<path class="path1" d="M14 0c7.734 0 14 6.266 14 14 0 7.688-6.234 14-14 14-7.75 0-14-6.297-14-14 0-7.734 6.266-14 14-14zM23.672 21.109c1.453-2 2.328-4.453 2.328-7.109 0-6.609-5.391-12-12-12s-12 5.391-12 12c0 2.656 0.875 5.109 2.328 7.109 0.562-2.797 1.922-5.109 4.781-5.109 1.266 1.234 2.984 2 4.891 2s3.625-0.766 4.891-2c2.859 0 4.219 2.312 4.781 5.109zM20 11c0-3.313-2.688-6-6-6s-6 2.688-6 6 2.688 6 6 6 6-2.688 6-6z"></path>
</symbol>
<symbol id="icon-user-o" viewBox="0 0 24 28">
<title>user-o</title>
<path class="path1" d="M18.766 12.25c2.203 0.641 5.234 2.812 5.234 9.922 0 3.219-2.391 5.828-5.328 5.828h-13.344c-2.938 0-5.328-2.609-5.328-5.828 0-7.109 3.031-9.281 5.234-9.922-0.781-1.234-1.234-2.688-1.234-4.25 0-4.406 3.594-8 8-8s8 3.594 8 8c0 1.563-0.453 3.016-1.234 4.25zM12 2c-3.313 0-6 2.688-6 6s2.688 6 6 6 6-2.688 6-6-2.688-6-6-6zM18.672 26c1.828 0 3.328-1.703 3.328-3.828 0-4.922-1.656-8-4.75-8.156-1.406 1.234-3.234 1.984-5.25 1.984s-3.844-0.75-5.25-1.984c-3.094 0.156-4.75 3.234-4.75 8.156 0 2.125 1.5 3.828 3.328 3.828h13.344z"></path>
</symbol>
</defs>
</svg>
